<?xml version="1.0" encoding="UTF-8"?>
<svg width="1024" height="1024" version="1.1" viewBox="0 0 270.93 270.93" xmlns="http://www.w3.org/2000/svg" xmlns:xlink="http://www.w3.org/1999/xlink"><defs><linearGradient id="linearGradient8" x2="270.93" y1="135.47" y2="135.47" gradientUnits="userSpaceOnUse"><stop stop-color="#3c0202" offset="0"/><stop stop-color="#1c0101" offset="1"/></linearGradient></defs><rect width="270.93" height="270.93" fill="url(#linearGradient8)" stroke-linecap="round" stroke-linejoin="round" stroke-width="1.0583"/><g fill="#c10008"><path d="m73.723 162.89v-9.8397q-0.49198 1.5374-2.8904 4.2434-2.3369 2.7059-6.4573 4.9198-4.0589 2.1524-9.5937 2.1524-7.0108 0-12.73-3.3209-5.6578-3.3209-9.0402-9.2862-3.3209-6.0268-3.3209-14.083 0-8.0562 3.3209-14.022 3.3824-6.0268 9.0402-9.3477 5.7193-3.3824 12.73-3.3824 5.4733 0 9.4707 1.9679 4.0589 1.9679 6.4573 4.5508 2.4599 2.5829 2.8904 4.4279v-9.4707h10.578v50.49zm-33.455-25.214q0 5.4733 2.3984 9.4707t6.2113 6.2113q3.8744 2.1524 8.2407 2.1524 4.6738 0 8.3637-2.2139 3.6899-2.2139 5.8423-6.2113 2.1524-4.0589 2.1524-9.4092 0-5.3503-2.1524-9.3477-2.1524-4.0589-5.8423-6.2728-3.6899-2.2754-8.3637-2.2754-4.3664 0-8.2407 2.2139-3.8129 2.2139-6.2113 6.2113t-2.3984 9.4707zm82.346 52.212q-5.9653 0-10.824-1.23-4.7968-1.23-8.4252-3.5054-3.5669-2.2139-5.7193-5.2273l7.0108-6.7033q1.1685 1.599 3.1364 3.3824 2.0294 1.8449 5.4733 3.1364 3.4439 1.2914 8.9787 1.2914 5.4118 0 9.1632-2.3369 3.7514-2.2754 5.7193-6.2113 1.9679-3.9359 1.9679-8.8557v-1.6604h10.455v2.3369q0 8.3637-3.6284 14.022-3.5669 5.7193-9.6552 8.6097-6.0883 2.9519-13.653 2.9519zm16.481-26.998v-9.8397q-0.49198 1.5374-2.8904 4.2434-2.3369 2.7059-6.4573 4.9198-4.0589 2.1524-9.5937 2.1524-7.0108 0-12.73-3.3209-5.6578-3.3209-9.0402-9.2862-3.3209-6.0268-3.3209-14.083 0-8.0562 3.3209-14.022 3.3824-6.0268 9.0402-9.3477 5.7193-3.3824 12.73-3.3824 5.4733 0 9.4707 1.9679 4.0589 1.9679 6.4573 4.5508 2.4599 2.5829 2.8904 4.4279v-9.4707h10.578v50.49zm-33.455-25.214q0 5.4733 2.3984 9.4707t6.2113 6.2113q3.8744 2.1524 8.2407 2.1524 4.6738 0 8.3637-2.2139 3.6899-2.2139 5.8423-6.2113 2.1524-4.0589 2.1524-9.4092 0-5.3503-2.1524-9.3477-2.1524-4.0589-5.8423-6.2728-3.6899-2.2754-8.3637-2.2754-4.3664 0-8.2407 2.2139-3.8129 2.2139-6.2113 6.2113t-2.3984 9.4707zm59.838 25.214v-50.49h10.701v50.49zm55.287-51.966q4.9813 0 9.6552 2.0909 4.7353 2.0909 7.7487 6.6418 3.0749 4.4894 3.0749 11.746v31.487h-10.824v-29.396q0-7.5028-3.5054-10.885-3.5054-3.4439-9.0402-3.4439-3.6284 0-7.0108 2.0909-3.3209 2.0294-5.4733 5.6578-2.1524 3.5669-2.1524 8.1177v27.859h-10.701v-50.49h10.701v8.9787q0.55348-2.0909 3.0134-4.5508t6.2728-4.1819q3.8129-1.722 8.2407-1.722z" stroke-linecap="round" stroke-linejoin="round" stroke-width="1.0583"/><path d="m167.47 66.494c0-1.5587 1.8705-2.3576 2.997-1.2789 3.4681 3.3229 5.4839 10.619 3.0997 16.154l-0.14192 0.30795 0.0201 0.0053c1.1071 0.23565 2.1309-0.76164 4.0793-3.849l0.2477-0.39699a1.7713 1.7713 0 0 1 2.8021-0.27113c2.3629 2.5418 4.6071 7.7529 4.6071 11.106 0 7.5545-6.3607 13.648-14.17 13.648-7.8096 0-14.17-6.0932-14.17-13.649 0-3.989 1.8102-8.3534 4.662-11.161l1.0716-1.0433c0.42712-0.41774 0.76874-0.76164 1.0947-1.1053 2.5329-2.6782 3.7994-5.1792 3.7994-8.4667" stroke-width=".26458"/></g></svg>
