<?xml version="1.0" encoding="UTF-8" standalone="no"?>
<!-- Created with Inkscape (http://www.inkscape.org/) -->

<svg
   width="1024"
   height="1024"
   viewBox="0 0 270.93333 270.93333"
   version="1.1"
   id="svg1"
   inkscape:version="1.4 (e7c3feb100, 2024-10-09)"
   sodipodi:docname="flame-background.svg"
   xmlns:inkscape="http://www.inkscape.org/namespaces/inkscape"
   xmlns:sodipodi="http://sodipodi.sourceforge.net/DTD/sodipodi-0.dtd"
   xmlns:xlink="http://www.w3.org/1999/xlink"
   xmlns="http://www.w3.org/2000/svg"
   xmlns:svg="http://www.w3.org/2000/svg">
  <sodipodi:namedview
     id="namedview1"
     pagecolor="#505050"
     bordercolor="#ffffff"
     borderopacity="1"
     inkscape:showpageshadow="0"
     inkscape:pageopacity="0"
     inkscape:pagecheckerboard="1"
     inkscape:deskcolor="#d1d1d1"
     inkscape:document-units="px"
     inkscape:zoom="1.0975309"
     inkscape:cx="467.41281"
     inkscape:cy="532.10347"
     inkscape:window-width="2526"
     inkscape:window-height="1358"
     inkscape:window-x="0"
     inkscape:window-y="0"
     inkscape:window-maximized="1"
     inkscape:current-layer="layer1" />
  <defs
     id="defs1">
    <linearGradient
       id="swatch6">
      <stop
         style="stop-color:#3c0202;stop-opacity:1;"
         offset="0"
         id="stop6" />
      <stop
         style="stop-color:#1c0101;stop-opacity:1;"
         offset="1"
         id="stop8" />
    </linearGradient>
    <linearGradient
       inkscape:collect="always"
       xlink:href="#swatch6"
       id="linearGradient8"
       x1="0"
       y1="135.46666"
       x2="270.93332"
       y2="135.46666"
       gradientUnits="userSpaceOnUse" />
  </defs>
  <g
     inkscape:label="Layer 1"
     inkscape:groupmode="layer"
     id="layer1">
    <rect
       style="fill:url(#linearGradient8);stroke-width:1.05833;stroke-linecap:round;stroke-linejoin:round"
       id="rect1"
       width="270.93332"
       height="270.93332"
       x="0"
       y="0"
       sodipodi:insensitive="true" />
    <path
       d="m 116.87787,47.136966 c 0,-8.182914 9.81971,-12.376847 15.73364,-6.713853 18.20716,17.444877 28.78945,55.747179 16.27307,84.806207 l -0.74506,1.61674 0.10552,0.0263 c 5.81204,1.23713 11.18682,-3.99853 21.41559,-20.2066 l 1.30038,-2.08413 a 9.2989272,9.2989272 0 0 1 14.71056,-1.42339 c 12.40462,13.34408 24.18645,40.70138 24.18645,58.30438 0,39.65995 -33.3925,71.64823 -74.39118,71.64823 -40.999033,0 -74.391534,-31.98828 -74.391534,-71.65737 0,-20.94147 9.503351,-43.85395 24.474664,-58.59259 l 5.62572,-5.47704 c 2.242308,-2.193126 4.035756,-3.998544 5.746992,-5.802544 C 110.22003,77.521261 116.86884,64.391221 116.86884,47.132293"
       id="path2"
       style="fill:#c10008;fill-opacity:1;stroke-width:0.264583" />
  </g>
</svg>
