<?xml version="1.0" encoding="UTF-8"?>
<svg width="1024" height="1024" version="1.1" viewBox="0 0 270.93 270.93" xmlns="http://www.w3.org/2000/svg" xmlns:xlink="http://www.w3.org/1999/xlink"><defs><linearGradient id="linearGradient8" x2="270.93" y1="135.47" y2="135.47" gradientUnits="userSpaceOnUse"><stop stop-color="#3c0202" offset="0"/><stop stop-color="#1c0101" offset="1"/></linearGradient></defs><rect width="270.93" height="270.93" fill="url(#linearGradient8)" stroke-linecap="round" stroke-linejoin="round" stroke-width="1.0583"/><path d="m116.88 47.137c0-8.1829 9.8197-12.377 15.734-6.7139 18.207 17.445 28.789 55.747 16.273 84.806l-0.74506 1.6167 0.10552 0.0263c5.812 1.2371 11.187-3.9985 21.416-20.207l1.3004-2.0841a9.2989 9.2989 0 0 1 14.711-1.4234c12.405 13.344 24.186 40.701 24.186 58.304 0 39.66-33.392 71.648-74.391 71.648-40.999 0-74.392-31.988-74.392-71.657 0-20.941 9.5034-43.854 24.475-58.593l5.6257-5.477c2.2423-2.1931 4.0358-3.9985 5.747-5.8025 13.297-14.06 19.946-27.19 19.946-44.449" fill="#c10008" stroke-width=".26458"/></svg>
